<svg xmlns="http://www.w3.org/2000/svg" viewBox="0 0 256 256" width="100%" height="100%">
  <defs>
    <linearGradient id="bg-grad" x1="0%" y1="0%" x2="100%" y2="100%">
      <stop offset="0%" stop-color="#4C1D95" /> <stop offset="100%" stop-color="#312E81" /> </linearGradient>

    <linearGradient id="gold-grad" x1="0%" y1="0%" x2="100%" y2="100%">
      <stop offset="0%" stop-color="#FDE047" />
      <stop offset="50%" stop-color="#F59E0B" />
      <stop offset="100%" stop-color="#D97706" />
    </linearGradient>

    <filter id="drop-shadow" x="-20%" y="-20%" width="140%" height="140%">
      <feDropShadow dx="0" dy="8" stdDeviation="8" flood-color="#000000" flood-opacity="0.3" />
    </filter>
  </defs>

  <rect width="256" height="256" rx="56" fill="url(#bg-grad)" />

  <g filter="url(#drop-shadow)">
    <path d="M 86 210 L 170 210 Q 180 210 180 220 L 180 225 Q 180 230 170 230 L 86 230 Q 76 230 76 225 L 76 220 Q 76 210 86 210 Z" fill="url(#gold-grad)" />
    <path d="M 96 195 L 160 195 L 170 210 L 86 210 Z" fill="#D97706" opacity="0.8"/>
    
    <rect x="118" y="155" width="20" height="40" fill="url(#gold-grad)" />
    <rect x="110" y="150" width="36" height="8" rx="4" fill="#FEF08A" />

    <path d="M 66 125 C 66 185, 190 185, 190 125 Z" fill="url(#gold-grad)" />
    <path d="M 66 125 C 66 135, 190 135, 190 125 Z" fill="#FEF08A" />

    <path d="M 56 125 C 56 90, 200 90, 200 125 Z" fill="#F472B6" />
    <path d="M 56 125 C 56 140, 80 140, 80 125 C 80 145, 104 145, 104 125 C 104 150, 128 150, 128 125 C 128 150, 152 150, 152 125 C 152 145, 176 145, 176 125 C 176 140, 200 140, 200 125 Z" fill="#F472B6" />

    <path d="M 76 100 C 76 65, 180 65, 180 100 Z" fill="#F9A8D4" />
    <path d="M 76 100 C 76 115, 102 115, 102 100 C 102 120, 128 120, 128 100 C 128 120, 154 120, 154 100 C 154 115, 180 115, 180 100 Z" fill="#F9A8D4" />

    <path d="M 96 75 C 96 30, 160 30, 160 75 Z" fill="#FDF2F8" />
    <path d="M 96 75 C 96 85, 112 85, 112 75 C 112 90, 128 90, 128 75 C 128 90, 144 90, 144 75 C 144 85, 160 85, 160 75 Z" fill="#FDF2F8" />
    
    <path d="M 128 35 Q 140 25 145 45 Q 128 50 128 35 Z" fill="#FDF2F8" />

    <path d="M 60 35 Q 60 50 70 50 Q 60 50 60 65 Q 60 50 50 50 Q 60 50 60 35 Z" fill="#FEF08A" />
    <path d="M 195 50 Q 195 60 205 60 Q 195 60 195 70 Q 195 60 185 60 Q 195 60 195 50 Z" fill="#FEF08A" />
    <polygon points="128,15 131,24 140,24 133,30 135,39 128,34 121,39 123,30 116,24 125,24" fill="#FDE047" />
  </g>
</svg> 
